# xmcd
#
# Track frame offsets: 
#        150
#        15396
#        31526
#        48502
#        60464
#        74652
#        90227
#
# Disc length: 1393 seconds
#
# Revision: 0
# Processed by: cddbd v1.5.2PL0 Copyright (c) Steve Scherf et al.
# Submitted via: ExactAudioCopy v1.3
#
DISCID=4a056f07
DTITLE=Holly Dunn - Just As I Am (EP)
DYEAR=2009
DGENRE=Country
TTITLE0=Just As I Am
TTITLE1=Only When I Love
TTITLE2=Softly And Tenderly
TTITLE3=That's What Your Love Does To Me
TTITLE4=Love Someone Like Me
TTITLE5=Daddy's Hands
TTITLE6=Strangers Again
EXTD=
EXTT0=
EXTT1=
EXTT2=
EXTT3=
EXTT4=
EXTT5=
EXTT6=
PLAYORDER=
